{
  "asset": {
    "version": "2.0",
    "generator": "EliteSharp tools/export_ships.py",
    "extras": {
      "description": "Elite ship model. Coordinates are in the original's left-handed space (x right, y up, z forward); the node mirrors x to convert to glTF's right-handed space."
    }
  },
  "scene": 0,
  "scenes": [
    {
      "nodes": [0]
    }
  ],
  "nodes": [
    {
      "name": "Adder",
      "mesh": 0,
      "scale": [-1, 1, 1]
    }
  ],
  "meshes": [
    {
      "name": "Adder",
      "primitives": [
        {
          "mode": 4,
          "attributes": {
            "POSITION": 0
          },
          "indices": 1,
          "extras": {
            "role": "surface"
          }
        },
        {
          "mode": 1,
          "attributes": {
            "POSITION": 0
          },
          "indices": 2,
          "extras": {
            "role": "structure"
          }
        },
        {
          "mode": 1,
          "attributes": {
            "POSITION": 0
          },
          "indices": 3,
          "extras": {
            "role": "details"
          }
        }
      ],
      "extras": {
        "elite": {
          "dotDistance": 20,
          "gunVertex": 0,
          "explosionVertices": 4
        }
      }
    }
  ],
  "accessors": [
    {
      "componentType": 5126,
      "count": 18,
      "type": "VEC3",
      "min": [-30.0, -7.0, -40.0],
      "max": [30.0, 7.0, 40.0],
      "bufferView": 0
    },
    {
      "componentType": 5123,
      "count": 72,
      "type": "SCALAR",
      "bufferView": 1
    },
    {
      "componentType": 5123,
      "count": 50,
      "type": "SCALAR",
      "bufferView": 2
    },
    {
      "componentType": 5123,
      "count": 8,
      "type": "SCALAR",
      "bufferView": 3
    }
  ],
  "bufferViews": [
    {
      "buffer": 0,
      "byteOffset": 0,
      "byteLength": 216,
      "target": 34962
    },
    {
      "buffer": 0,
      "byteOffset": 216,
      "byteLength": 144,
      "target": 34963
    },
    {
      "buffer": 0,
      "byteOffset": 360,
      "byteLength": 100,
      "target": 34963
    },
    {
      "buffer": 0,
      "byteOffset": 460,
      "byteLength": 16,
      "target": 34963
    }
  ],
  "buffers": [
    {
      "byteLength": 476,
      "uri": "data:application/octet-stream;base64,"
    }
  ]
}
