{
  "asset": {
    "version": "2.0",
    "generator": "EliteSharp tools/export_ships.py",
    "extras": {
      "description": "Elite ship wireframe. Coordinates are in the original's left-handed space (x right, y up, z forward); the node mirrors x to convert to glTF's right-handed space."
    }
  },
  "scene": 0,
  "scenes": [
    {
      "nodes": [0]
    }
  ],
  "nodes": [
    {
      "name": "Anaconda",
      "mesh": 0,
      "scale": [-1, 1, 1]
    }
  ],
  "meshes": [
    {
      "name": "Anaconda",
      "primitives": [
        {
          "mode": 1,
          "attributes": {
            "POSITION": 0,
            "_FACES": 1,
            "_VISIBILITY": 2
          },
          "indices": 3
        }
      ],
      "extras": {
        "elite": {
          "normalScale": 1,
          "dotDistance": 36,
          "maxVisibleEdges": 23,
          "gunVertex": 12,
          "explosionVertices": 10,
          "edges": [
            {"faces": [1, 0], "visibility": 30},
            {"faces": [2, 0], "visibility": 30},
            {"faces": [3, 0], "visibility": 30},
            {"faces": [4, 0], "visibility": 30},
            {"faces": [5, 0], "visibility": 30},
            {"faces": [5, 1], "visibility": 29},
            {"faces": [2, 1], "visibility": 29},
            {"faces": [3, 2], "visibility": 29},
            {"faces": [4, 3], "visibility": 29},
            {"faces": [5, 4], "visibility": 29},
            {"faces": [6, 1], "visibility": 30},
            {"faces": [7, 1], "visibility": 30},
            {"faces": [7, 2], "visibility": 30},
            {"faces": [8, 2], "visibility": 30},
            {"faces": [8, 3], "visibility": 31},
            {"faces": [9, 3], "visibility": 31},
            {"faces": [9, 4], "visibility": 30},
            {"faces": [10, 4], "visibility": 30},
            {"faces": [10, 5], "visibility": 30},
            {"faces": [6, 5], "visibility": 30},
            {"faces": [11, 6], "visibility": 30},
            {"faces": [11, 7], "visibility": 31},
            {"faces": [8, 7], "visibility": 31},
            {"faces": [10, 9], "visibility": 31},
            {"faces": [11, 10], "visibility": 31}
          ],
          "faces": [
            {"normal": [0, -51, -49], "visibility": 30},
            {"normal": [-51, 18, -87], "visibility": 30},
            {"normal": [-77, -57, -19], "visibility": 30},
            {"normal": [0, -90, 16], "visibility": 31},
            {"normal": [77, -57, -19], "visibility": 30},
            {"normal": [51, 18, -87], "visibility": 30},
            {"normal": [0, 111, -20], "visibility": 30},
            {"normal": [-97, 72, 24], "visibility": 31},
            {"normal": [-108, -68, 34], "visibility": 31},
            {"normal": [108, -68, 34], "visibility": 31},
            {"normal": [97, 72, 24], "visibility": 31},
            {"normal": [0, 94, 18], "visibility": 31}
          ]
        }
      }
    }
  ],
  "accessors": [
    {
      "bufferView": 0,
      "componentType": 5126,
      "count": 15,
      "type": "VEC3",
      "min": [-69, -47, -58],
      "max": [69, 53, 254]
    },
    {
      "bufferView": 1,
      "componentType": 5121,
      "count": 15,
      "type": "VEC4"
    },
    {
      "bufferView": 2,
      "componentType": 5126,
      "count": 15,
      "type": "SCALAR"
    },
    {
      "bufferView": 3,
      "componentType": 5123,
      "count": 50,
      "type": "SCALAR"
    }
  ],
  "bufferViews": [
    {
      "buffer": 0,
      "byteOffset": 0,
      "byteLength": 180,
      "target": 34962
    },
    {
      "buffer": 0,
      "byteOffset": 180,
      "byteLength": 60,
      "target": 34962
    },
    {
      "buffer": 0,
      "byteOffset": 240,
      "byteLength": 60,
      "target": 34962
    },
    {
      "buffer": 0,
      "byteOffset": 300,
      "byteLength": 100,
      "target": 34963
    }
  ],
  "buffers": [
    {
      "byteLength": 400,
      "uri": "data:application/octet-stream;base64,"
    }
  ]
}
