{
  "asset": {
    "version": "2.0",
    "generator": "EliteSharp tools/export_ships.py",
    "extras": {
      "description": "Elite ship model. Coordinates are in the original's left-handed space (x right, y up, z forward); the node mirrors x to convert to glTF's right-handed space."
    }
  },
  "scene": 0,
  "scenes": [
    {
      "nodes": [0]
    }
  ],
  "nodes": [
    {
      "name": "Cobra Mk I",
      "mesh": 0,
      "scale": [-1, 1, 1]
    }
  ],
  "meshes": [
    {
      "name": "Cobra Mk I",
      "primitives": [
        {
          "mode": 4,
          "attributes": {
            "POSITION": 0
          },
          "indices": 1,
          "extras": {
            "role": "surface"
          }
        },
        {
          "mode": 1,
          "attributes": {
            "POSITION": 0
          },
          "indices": 2,
          "extras": {
            "role": "structure"
          }
        }
      ],
      "extras": {
        "elite": {
          "dotDistance": 19,
          "gunVertex": 10,
          "explosionVertices": 5
        }
      }
    }
  ],
  "accessors": [
    {
      "componentType": 5126,
      "count": 11,
      "type": "VEC3",
      "min": [-66.0, -12.0, -38.0],
      "max": [66.0, 12.0, 60.0],
      "bufferView": 0
    },
    {
      "componentType": 5123,
      "count": 42,
      "type": "SCALAR",
      "bufferView": 1
    },
    {
      "componentType": 5123,
      "count": 36,
      "type": "SCALAR",
      "bufferView": 2
    }
  ],
  "bufferViews": [
    {
      "buffer": 0,
      "byteOffset": 0,
      "byteLength": 132,
      "target": 34962
    },
    {
      "buffer": 0,
      "byteOffset": 132,
      "byteLength": 84,
      "target": 34963
    },
    {
      "buffer": 0,
      "byteOffset": 216,
      "byteLength": 72,
      "target": 34963
    }
  ],
  "buffers": [
    {
      "byteLength": 288,
      "uri": "data:application/octet-stream;base64,"
    }
  ]
}
