{
  "asset": {
    "version": "2.0",
    "generator": "EliteSharp tools/export_ships.py",
    "extras": {
      "description": "Elite ship model. Coordinates are in the original's left-handed space (x right, y up, z forward); the node mirrors x to convert to glTF's right-handed space."
    }
  },
  "scene": 0,
  "scenes": [
    {
      "nodes": [0]
    }
  ],
  "nodes": [
    {
      "name": "Cobra Mk III",
      "mesh": 0,
      "scale": [-1, 1, 1]
    }
  ],
  "meshes": [
    {
      "name": "Cobra Mk III",
      "primitives": [
        {
          "mode": 4,
          "attributes": {
            "POSITION": 0
          },
          "indices": 1,
          "extras": {
            "role": "surface"
          }
        },
        {
          "mode": 1,
          "attributes": {
            "POSITION": 0
          },
          "indices": 2,
          "extras": {
            "role": "structure"
          }
        },
        {
          "mode": 1,
          "attributes": {
            "POSITION": 0
          },
          "indices": 3,
          "extras": {
            "role": "details"
          }
        }
      ],
      "extras": {
        "elite": {
          "gunVertex": 21,
          "explosionVertices": 9
        }
      }
    }
  ],
  "accessors": [
    {
      "componentType": 5126,
      "count": 28,
      "type": "VEC3",
      "min": [-128.0, -24.0, -40.0],
      "max": [128.0, 26.0, 90.0],
      "bufferView": 0
    },
    {
      "componentType": 5123,
      "count": 60,
      "type": "SCALAR",
      "bufferView": 1
    },
    {
      "componentType": 5123,
      "count": 48,
      "type": "SCALAR",
      "bufferView": 2
    },
    {
      "componentType": 5123,
      "count": 28,
      "type": "SCALAR",
      "bufferView": 3
    }
  ],
  "bufferViews": [
    {
      "buffer": 0,
      "byteOffset": 0,
      "byteLength": 336,
      "target": 34962
    },
    {
      "buffer": 0,
      "byteOffset": 336,
      "byteLength": 120,
      "target": 34963
    },
    {
      "buffer": 0,
      "byteOffset": 456,
      "byteLength": 96,
      "target": 34963
    },
    {
      "buffer": 0,
      "byteOffset": 552,
      "byteLength": 56,
      "target": 34963
    }
  ],
  "buffers": [
    {
      "byteLength": 608,
      "uri": "data:application/octet-stream;base64,"
    }
  ]
}
