{
  "asset": {
    "version": "2.0",
    "generator": "EliteSharp tools/export_ships.py",
    "extras": {
      "description": "Elite ship wireframe. Coordinates are in the original's left-handed space (x right, y up, z forward); the node mirrors x to convert to glTF's right-handed space."
    }
  },
  "scene": 0,
  "scenes": [
    {
      "nodes": [0]
    }
  ],
  "nodes": [
    {
      "name": "Coriolis space station",
      "mesh": 0,
      "scale": [-1, 1, 1]
    }
  ],
  "meshes": [
    {
      "name": "Coriolis space station",
      "primitives": [
        {
          "mode": 1,
          "attributes": {
            "POSITION": 0,
            "_FACES": 1,
            "_VISIBILITY": 2
          },
          "indices": 3
        }
      ],
      "extras": {
        "elite": {
          "normalScale": 0,
          "dotDistance": 120,
          "maxVisibleEdges": 22,
          "gunVertex": 0,
          "explosionVertices": 12,
          "edges": [
            {"faces": [0, 1], "visibility": 31},
            {"faces": [0, 2], "visibility": 31},
            {"faces": [0, 3], "visibility": 31},
            {"faces": [0, 4], "visibility": 31},
            {"faces": [1, 5], "visibility": 31},
            {"faces": [1, 6], "visibility": 31},
            {"faces": [2, 6], "visibility": 31},
            {"faces": [2, 8], "visibility": 31},
            {"faces": [3, 8], "visibility": 31},
            {"faces": [3, 7], "visibility": 31},
            {"faces": [4, 7], "visibility": 31},
            {"faces": [4, 5], "visibility": 31},
            {"faces": [10, 13], "visibility": 31},
            {"faces": [11, 13], "visibility": 31},
            {"faces": [12, 13], "visibility": 31},
            {"faces": [9, 13], "visibility": 31},
            {"faces": [5, 10], "visibility": 31},
            {"faces": [6, 10], "visibility": 31},
            {"faces": [6, 11], "visibility": 31},
            {"faces": [8, 11], "visibility": 31},
            {"faces": [8, 12], "visibility": 31},
            {"faces": [7, 12], "visibility": 31},
            {"faces": [7, 9], "visibility": 31},
            {"faces": [5, 9], "visibility": 31},
            {"faces": [0, 0], "visibility": 30},
            {"faces": [0, 0], "visibility": 30},
            {"faces": [0, 0], "visibility": 30},
            {"faces": [0, 0], "visibility": 30}
          ],
          "faces": [
            {"normal": [0, 0, 160], "visibility": 31},
            {"normal": [107, -107, 107], "visibility": 31},
            {"normal": [107, 107, 107], "visibility": 31},
            {"normal": [-107, 107, 107], "visibility": 31},
            {"normal": [-107, -107, 107], "visibility": 31},
            {"normal": [0, -160, 0], "visibility": 31},
            {"normal": [160, 0, 0], "visibility": 31},
            {"normal": [-160, 0, 0], "visibility": 31},
            {"normal": [0, 160, 0], "visibility": 31},
            {"normal": [-107, -107, -107], "visibility": 31},
            {"normal": [107, -107, -107], "visibility": 31},
            {"normal": [107, 107, -107], "visibility": 31},
            {"normal": [-107, 107, -107], "visibility": 31},
            {"normal": [0, 0, -160], "visibility": 31}
          ]
        }
      }
    }
  ],
  "accessors": [
    {
      "bufferView": 0,
      "componentType": 5126,
      "count": 16,
      "type": "VEC3",
      "min": [-160, -160, -160],
      "max": [160, 160, 160]
    },
    {
      "bufferView": 1,
      "componentType": 5121,
      "count": 16,
      "type": "VEC4"
    },
    {
      "bufferView": 2,
      "componentType": 5126,
      "count": 16,
      "type": "SCALAR"
    },
    {
      "bufferView": 3,
      "componentType": 5123,
      "count": 56,
      "type": "SCALAR"
    }
  ],
  "bufferViews": [
    {
      "buffer": 0,
      "byteOffset": 0,
      "byteLength": 192,
      "target": 34962
    },
    {
      "buffer": 0,
      "byteOffset": 192,
      "byteLength": 64,
      "target": 34962
    },
    {
      "buffer": 0,
      "byteOffset": 256,
      "byteLength": 64,
      "target": 34962
    },
    {
      "buffer": 0,
      "byteOffset": 320,
      "byteLength": 112,
      "target": 34963
    }
  ],
  "buffers": [
    {
      "byteLength": 432,
      "uri": "data:application/octet-stream;base64,"
    }
  ]
}
