{
  "asset": {
    "version": "2.0",
    "generator": "EliteSharp tools/export_ships.py",
    "extras": {
      "description": "Elite ship model. Coordinates are in the original's left-handed space (x right, y up, z forward); the node mirrors x to convert to glTF's right-handed space."
    }
  },
  "scene": 0,
  "scenes": [
    {
      "nodes": [0]
    }
  ],
  "nodes": [
    {
      "name": "Gecko",
      "mesh": 0,
      "scale": [-1, 1, 1]
    }
  ],
  "meshes": [
    {
      "name": "Gecko",
      "primitives": [
        {
          "mode": 4,
          "attributes": {
            "POSITION": 0
          },
          "indices": 1,
          "extras": {
            "role": "surface"
          }
        },
        {
          "mode": 1,
          "attributes": {
            "POSITION": 0
          },
          "indices": 2,
          "extras": {
            "role": "structure"
          }
        },
        {
          "mode": 1,
          "attributes": {
            "POSITION": 0
          },
          "indices": 3,
          "extras": {
            "role": "details"
          }
        }
      ],
      "extras": {
        "elite": {
          "gunVertex": 0,
          "explosionVertices": 5
        }
      }
    }
  ],
  "accessors": [
    {
      "componentType": 5126,
      "count": 12,
      "type": "VEC3",
      "min": [-66.0, -14.0, -23.0],
      "max": [66.0, 8.0, 47.0],
      "bufferView": 0
    },
    {
      "componentType": 5123,
      "count": 36,
      "type": "SCALAR",
      "bufferView": 1
    },
    {
      "componentType": 5123,
      "count": 30,
      "type": "SCALAR",
      "bufferView": 2
    },
    {
      "componentType": 5123,
      "count": 4,
      "type": "SCALAR",
      "bufferView": 3
    }
  ],
  "bufferViews": [
    {
      "buffer": 0,
      "byteOffset": 0,
      "byteLength": 144,
      "target": 34962
    },
    {
      "buffer": 0,
      "byteOffset": 144,
      "byteLength": 72,
      "target": 34963
    },
    {
      "buffer": 0,
      "byteOffset": 216,
      "byteLength": 60,
      "target": 34963
    },
    {
      "buffer": 0,
      "byteOffset": 276,
      "byteLength": 8,
      "target": 34963
    }
  ],
  "buffers": [
    {
      "byteLength": 284,
      "uri": "data:application/octet-stream;base64,"
    }
  ]
}
