{
  "asset": {
    "version": "2.0",
    "generator": "EliteSharp tools/export_ships.py",
    "extras": {
      "description": "Elite ship model. Coordinates are in the original's left-handed space (x right, y up, z forward); the node mirrors x to convert to glTF's right-handed space."
    }
  },
  "scene": 0,
  "scenes": [
    {
      "nodes": [0]
    }
  ],
  "nodes": [
    {
      "name": "Krait",
      "mesh": 0,
      "scale": [-1, 1, 1]
    }
  ],
  "meshes": [
    {
      "name": "Krait",
      "primitives": [
        {
          "mode": 4,
          "attributes": {
            "POSITION": 0
          },
          "indices": 1,
          "extras": {
            "role": "surface"
          }
        },
        {
          "mode": 1,
          "attributes": {
            "POSITION": 0
          },
          "indices": 2,
          "extras": {
            "role": "structure"
          }
        },
        {
          "mode": 1,
          "attributes": {
            "POSITION": 0
          },
          "indices": 3,
          "extras": {
            "role": "details"
          }
        }
      ],
      "extras": {
        "elite": {
          "gunVertex": 0,
          "explosionVertices": 3
        }
      }
    }
  ],
  "accessors": [
    {
      "componentType": 5126,
      "count": 17,
      "type": "VEC3",
      "min": [-90.0, -18.0, -48.0],
      "max": [90.0, 18.0, 96.0],
      "bufferView": 0
    },
    {
      "componentType": 5123,
      "count": 18,
      "type": "SCALAR",
      "bufferView": 1
    },
    {
      "componentType": 5123,
      "count": 22,
      "type": "SCALAR",
      "bufferView": 2
    },
    {
      "componentType": 5123,
      "count": 20,
      "type": "SCALAR",
      "bufferView": 3
    }
  ],
  "bufferViews": [
    {
      "buffer": 0,
      "byteOffset": 0,
      "byteLength": 204,
      "target": 34962
    },
    {
      "buffer": 0,
      "byteOffset": 204,
      "byteLength": 36,
      "target": 34963
    },
    {
      "buffer": 0,
      "byteOffset": 240,
      "byteLength": 44,
      "target": 34963
    },
    {
      "buffer": 0,
      "byteOffset": 284,
      "byteLength": 40,
      "target": 34963
    }
  ],
  "buffers": [
    {
      "byteLength": 324,
      "uri": "data:application/octet-stream;base64,"
    }
  ]
}
