{
  "asset": {
    "version": "2.0",
    "generator": "EliteSharp tools/export_ships.py",
    "extras": {
      "description": "Elite ship model. Coordinates are in the original's left-handed space (x right, y up, z forward); the node mirrors x to convert to glTF's right-handed space."
    }
  },
  "scene": 0,
  "scenes": [
    {
      "nodes": [0]
    }
  ],
  "nodes": [
    {
      "name": "Mamba",
      "mesh": 0,
      "scale": [-1, 1, 1]
    }
  ],
  "meshes": [
    {
      "name": "Mamba",
      "primitives": [
        {
          "mode": 4,
          "attributes": {
            "POSITION": 0
          },
          "indices": 1,
          "extras": {
            "role": "surface"
          }
        },
        {
          "mode": 1,
          "attributes": {
            "POSITION": 0
          },
          "indices": 2,
          "extras": {
            "role": "structure"
          }
        },
        {
          "mode": 1,
          "attributes": {
            "POSITION": 0
          },
          "indices": 3,
          "extras": {
            "role": "details"
          }
        }
      ],
      "extras": {
        "elite": {
          "dotDistance": 25,
          "gunVertex": 0,
          "explosionVertices": 7
        }
      }
    }
  ],
  "accessors": [
    {
      "componentType": 5126,
      "count": 25,
      "type": "VEC3",
      "min": [-64.0, -8.0, -32.0],
      "max": [64.0, 8.0, 64.0],
      "bufferView": 0
    },
    {
      "componentType": 5123,
      "count": 18,
      "type": "SCALAR",
      "bufferView": 1
    },
    {
      "componentType": 5123,
      "count": 16,
      "type": "SCALAR",
      "bufferView": 2
    },
    {
      "componentType": 5123,
      "count": 40,
      "type": "SCALAR",
      "bufferView": 3
    }
  ],
  "bufferViews": [
    {
      "buffer": 0,
      "byteOffset": 0,
      "byteLength": 300,
      "target": 34962
    },
    {
      "buffer": 0,
      "byteOffset": 300,
      "byteLength": 36,
      "target": 34963
    },
    {
      "buffer": 0,
      "byteOffset": 336,
      "byteLength": 32,
      "target": 34963
    },
    {
      "buffer": 0,
      "byteOffset": 368,
      "byteLength": 80,
      "target": 34963
    }
  ],
  "buffers": [
    {
      "byteLength": 448,
      "uri": "data:application/octet-stream;base64,"
    }
  ]
}
