{
  "asset": {
    "version": "2.0",
    "generator": "EliteSharp tools/export_ships.py",
    "extras": {
      "description": "Elite ship model. Coordinates are in the original's left-handed space (x right, y up, z forward); the node mirrors x to convert to glTF's right-handed space."
    }
  },
  "scene": 0,
  "scenes": [
    {
      "nodes": [0]
    }
  ],
  "nodes": [
    {
      "name": "Rock hermit",
      "mesh": 0,
      "scale": [-1, 1, 1]
    }
  ],
  "meshes": [
    {
      "name": "Rock hermit",
      "primitives": [
        {
          "mode": 4,
          "attributes": {
            "POSITION": 0
          },
          "indices": 1,
          "extras": {
            "role": "surface"
          }
        },
        {
          "mode": 1,
          "attributes": {
            "POSITION": 0
          },
          "indices": 2,
          "extras": {
            "role": "structure"
          }
        }
      ],
      "extras": {
        "elite": {
          "gunVertex": 0,
          "explosionVertices": 11
        }
      }
    }
  ],
  "accessors": [
    {
      "componentType": 5126,
      "count": 9,
      "type": "VEC3",
      "min": [-80.0, -80.0, -75.0],
      "max": [70.0, 80.0, 70.0],
      "bufferView": 0
    },
    {
      "componentType": 5123,
      "count": 42,
      "type": "SCALAR",
      "bufferView": 1
    },
    {
      "componentType": 5123,
      "count": 42,
      "type": "SCALAR",
      "bufferView": 2
    }
  ],
  "bufferViews": [
    {
      "buffer": 0,
      "byteOffset": 0,
      "byteLength": 108,
      "target": 34962
    },
    {
      "buffer": 0,
      "byteOffset": 108,
      "byteLength": 84,
      "target": 34963
    },
    {
      "buffer": 0,
      "byteOffset": 192,
      "byteLength": 84,
      "target": 34963
    }
  ],
  "buffers": [
    {
      "byteLength": 276,
      "uri": "data:application/octet-stream;base64,"
    }
  ]
}
