{
  "asset": {
    "version": "2.0",
    "generator": "EliteSharp tools/export_ships.py",
    "extras": {
      "description": "Elite ship wireframe. Coordinates are in the original's left-handed space (x right, y up, z forward); the node mirrors x to convert to glTF's right-handed space."
    }
  },
  "scene": 0,
  "scenes": [
    {
      "nodes": [0]
    }
  ],
  "nodes": [
    {
      "name": "Thargoid",
      "mesh": 0,
      "scale": [-1, 1, 1]
    }
  ],
  "meshes": [
    {
      "name": "Thargoid",
      "primitives": [
        {
          "mode": 1,
          "attributes": {
            "POSITION": 0,
            "_FACES": 1,
            "_VISIBILITY": 2
          },
          "indices": 3
        }
      ],
      "extras": {
        "elite": {
          "normalScale": 2,
          "dotDistance": 55,
          "maxVisibleEdges": 26,
          "gunVertex": 15,
          "explosionVertices": 8,
          "edges": [
            {"faces": [4, 8], "visibility": 31},
            {"faces": [0, 4], "visibility": 31},
            {"faces": [1, 4], "visibility": 31},
            {"faces": [2, 4], "visibility": 31},
            {"faces": [3, 4], "visibility": 31},
            {"faces": [4, 5], "visibility": 31},
            {"faces": [4, 6], "visibility": 31},
            {"faces": [4, 7], "visibility": 31},
            {"faces": [0, 8], "visibility": 31},
            {"faces": [0, 1], "visibility": 31},
            {"faces": [1, 2], "visibility": 31},
            {"faces": [2, 3], "visibility": 31},
            {"faces": [3, 5], "visibility": 31},
            {"faces": [5, 6], "visibility": 31},
            {"faces": [6, 7], "visibility": 31},
            {"faces": [7, 8], "visibility": 31},
            {"faces": [8, 9], "visibility": 31},
            {"faces": [0, 9], "visibility": 31},
            {"faces": [1, 9], "visibility": 31},
            {"faces": [2, 9], "visibility": 31},
            {"faces": [3, 9], "visibility": 31},
            {"faces": [5, 9], "visibility": 31},
            {"faces": [6, 9], "visibility": 31},
            {"faces": [7, 9], "visibility": 31},
            {"faces": [9, 9], "visibility": 30},
            {"faces": [9, 9], "visibility": 30}
          ],
          "faces": [
            {"normal": [103, -60, 25], "visibility": 31},
            {"normal": [103, -60, -25], "visibility": 31},
            {"normal": [103, -25, -60], "visibility": 31},
            {"normal": [103, 25, -60], "visibility": 31},
            {"normal": [64, 0, 0], "visibility": 31},
            {"normal": [103, 60, -25], "visibility": 31},
            {"normal": [103, 60, 25], "visibility": 31},
            {"normal": [103, 25, 60], "visibility": 31},
            {"normal": [103, -25, 60], "visibility": 31},
            {"normal": [-48, 0, 0], "visibility": 31}
          ]
        }
      }
    }
  ],
  "accessors": [
    {
      "bufferView": 0,
      "componentType": 5126,
      "count": 20,
      "type": "VEC3",
      "min": [-24, -164, -164],
      "max": [32, 164, 164]
    },
    {
      "bufferView": 1,
      "componentType": 5121,
      "count": 20,
      "type": "VEC4"
    },
    {
      "bufferView": 2,
      "componentType": 5126,
      "count": 20,
      "type": "SCALAR"
    },
    {
      "bufferView": 3,
      "componentType": 5123,
      "count": 52,
      "type": "SCALAR"
    }
  ],
  "bufferViews": [
    {
      "buffer": 0,
      "byteOffset": 0,
      "byteLength": 240,
      "target": 34962
    },
    {
      "buffer": 0,
      "byteOffset": 240,
      "byteLength": 80,
      "target": 34962
    },
    {
      "buffer": 0,
      "byteOffset": 320,
      "byteLength": 80,
      "target": 34962
    },
    {
      "buffer": 0,
      "byteOffset": 400,
      "byteLength": 104,
      "target": 34963
    }
  ],
  "buffers": [
    {
      "byteLength": 504,
      "uri": "data:application/octet-stream;base64,"
    }
  ]
}
