{
  "asset": {
    "version": "2.0",
    "generator": "EliteSharp tools/export_ships.py",
    "extras": {
      "description": "Elite ship wireframe. Coordinates are in the original's left-handed space (x right, y up, z forward); the node mirrors x to convert to glTF's right-handed space."
    }
  },
  "scene": 0,
  "scenes": [
    {
      "nodes": [0]
    }
  ],
  "nodes": [
    {
      "name": "Transporter",
      "mesh": 0,
      "scale": [-1, 1, 1]
    }
  ],
  "meshes": [
    {
      "name": "Transporter",
      "primitives": [
        {
          "mode": 1,
          "attributes": {
            "POSITION": 0,
            "_FACES": 1,
            "_VISIBILITY": 2
          },
          "indices": 3
        }
      ],
      "extras": {
        "elite": {
          "normalScale": 2,
          "dotDistance": 16,
          "maxVisibleEdges": 37,
          "gunVertex": 12,
          "explosionVertices": 5,
          "edges": [
            {"faces": [7, 0], "visibility": 31},
            {"faces": [1, 0], "visibility": 31},
            {"faces": [2, 0], "visibility": 31},
            {"faces": [3, 0], "visibility": 31},
            {"faces": [4, 0], "visibility": 31},
            {"faces": [5, 0], "visibility": 31},
            {"faces": [6, 0], "visibility": 31},
            {"faces": [7, 6], "visibility": 16},
            {"faces": [7, 1], "visibility": 31},
            {"faces": [2, 1], "visibility": 11},
            {"faces": [3, 2], "visibility": 31},
            {"faces": [4, 3], "visibility": 31},
            {"faces": [5, 4], "visibility": 11},
            {"faces": [6, 5], "visibility": 31},
            {"faces": [8, 7], "visibility": 17},
            {"faces": [9, 1], "visibility": 17},
            {"faces": [10, 5], "visibility": 17},
            {"faces": [11, 6], "visibility": 17},
            {"faces": [12, 11], "visibility": 19},
            {"faces": [12, 8], "visibility": 19},
            {"faces": [9, 8], "visibility": 16},
            {"faces": [9, 3], "visibility": 31},
            {"faces": [10, 3], "visibility": 31},
            {"faces": [11, 10], "visibility": 16},
            {"faces": [13, 9], "visibility": 31},
            {"faces": [13, 3], "visibility": 31},
            {"faces": [13, 10], "visibility": 31},
            {"faces": [13, 12], "visibility": 31},
            {"faces": [7, 7], "visibility": 7},
            {"faces": [7, 7], "visibility": 7},
            {"faces": [7, 7], "visibility": 7},
            {"faces": [7, 7], "visibility": 7},
            {"faces": [7, 7], "visibility": 7},
            {"faces": [6, 6], "visibility": 7},
            {"faces": [6, 6], "visibility": 7},
            {"faces": [6, 6], "visibility": 7},
            {"faces": [6, 6], "visibility": 7},
            {"faces": [6, 6], "visibility": 7},
            {"faces": [6, 6], "visibility": 7},
            {"faces": [6, 6], "visibility": 7},
            {"faces": [3, 3], "visibility": 6},
            {"faces": [3, 3], "visibility": 6},
            {"faces": [0, 0], "visibility": 8},
            {"faces": [0, 0], "visibility": 5},
            {"faces": [0, 0], "visibility": 5},
            {"faces": [0, 0], "visibility": 5}
          ],
          "faces": [
            {"normal": [0, 0, -103], "visibility": 31},
            {"normal": [-111, 48, -7], "visibility": 31},
            {"normal": [-105, -63, -21], "visibility": 31},
            {"normal": [0, -34, 0], "visibility": 31},
            {"normal": [105, -63, -21], "visibility": 31},
            {"normal": [111, 48, -7], "visibility": 31},
            {"normal": [8, 32, 3], "visibility": 31},
            {"normal": [-8, 32, 3], "visibility": 31},
            {"normal": [-8, 34, 11], "visibility": 19},
            {"normal": [-75, 32, 79], "visibility": 31},
            {"normal": [75, 32, 79], "visibility": 31},
            {"normal": [8, 34, 11], "visibility": 19},
            {"normal": [0, 38, 17], "visibility": 31},
            {"normal": [0, 0, 121], "visibility": 31}
          ]
        }
      }
    }
  ],
  "accessors": [
    {
      "bufferView": 0,
      "componentType": 5126,
      "count": 37,
      "type": "VEC3",
      "min": [-33, -8, -26],
      "max": [33, 10, 30]
    },
    {
      "bufferView": 1,
      "componentType": 5121,
      "count": 37,
      "type": "VEC4"
    },
    {
      "bufferView": 2,
      "componentType": 5126,
      "count": 37,
      "type": "SCALAR"
    },
    {
      "bufferView": 3,
      "componentType": 5123,
      "count": 92,
      "type": "SCALAR"
    }
  ],
  "bufferViews": [
    {
      "buffer": 0,
      "byteOffset": 0,
      "byteLength": 444,
      "target": 34962
    },
    {
      "buffer": 0,
      "byteOffset": 444,
      "byteLength": 148,
      "target": 34962
    },
    {
      "buffer": 0,
      "byteOffset": 592,
      "byteLength": 148,
      "target": 34962
    },
    {
      "buffer": 0,
      "byteOffset": 740,
      "byteLength": 184,
      "target": 34963
    }
  ],
  "buffers": [
    {
      "byteLength": 924,
      "uri": "data:application/octet-stream;base64,"
    }
  ]
}
