{
  "asset": {
    "version": "2.0",
    "generator": "EliteSharp tools/export_ships.py",
    "extras": {
      "description": "Elite ship wireframe. Coordinates are in the original's left-handed space (x right, y up, z forward); the node mirrors x to convert to glTF's right-handed space."
    }
  },
  "scene": 0,
  "scenes": [
    {
      "nodes": [0]
    }
  ],
  "nodes": [
    {
      "name": "Viper",
      "mesh": 0,
      "scale": [-1, 1, 1]
    }
  ],
  "meshes": [
    {
      "name": "Viper",
      "primitives": [
        {
          "mode": 1,
          "attributes": {
            "POSITION": 0,
            "_FACES": 1,
            "_VISIBILITY": 2
          },
          "indices": 3
        }
      ],
      "extras": {
        "elite": {
          "normalScale": 1,
          "dotDistance": 23,
          "maxVisibleEdges": 20,
          "gunVertex": 0,
          "explosionVertices": 9,
          "edges": [
            {"faces": [2, 4], "visibility": 31},
            {"faces": [1, 2], "visibility": 30},
            {"faces": [3, 4], "visibility": 30},
            {"faces": [1, 3], "visibility": 31},
            {"faces": [0, 2], "visibility": 30},
            {"faces": [0, 1], "visibility": 30},
            {"faces": [4, 5], "visibility": 30},
            {"faces": [3, 5], "visibility": 30},
            {"faces": [0, 6], "visibility": 31},
            {"faces": [5, 6], "visibility": 30},
            {"faces": [1, 6], "visibility": 31},
            {"faces": [3, 6], "visibility": 30},
            {"faces": [2, 6], "visibility": 31},
            {"faces": [6, 4], "visibility": 30},
            {"faces": [6, 6], "visibility": 19},
            {"faces": [6, 6], "visibility": 18},
            {"faces": [6, 6], "visibility": 19},
            {"faces": [6, 6], "visibility": 18},
            {"faces": [6, 6], "visibility": 16},
            {"faces": [6, 6], "visibility": 16}
          ],
          "faces": [
            {"normal": [0, 32, 0], "visibility": 31},
            {"normal": [-22, 33, 11], "visibility": 31},
            {"normal": [22, 33, 11], "visibility": 31},
            {"normal": [-22, -33, 11], "visibility": 31},
            {"normal": [22, -33, 11], "visibility": 31},
            {"normal": [0, -32, 0], "visibility": 31},
            {"normal": [0, 0, -48], "visibility": 31}
          ]
        }
      }
    }
  ],
  "accessors": [
    {
      "bufferView": 0,
      "componentType": 5126,
      "count": 15,
      "type": "VEC3",
      "min": [-48, -16, -24],
      "max": [48, 16, 72]
    },
    {
      "bufferView": 1,
      "componentType": 5121,
      "count": 15,
      "type": "VEC4"
    },
    {
      "bufferView": 2,
      "componentType": 5126,
      "count": 15,
      "type": "SCALAR"
    },
    {
      "bufferView": 3,
      "componentType": 5123,
      "count": 40,
      "type": "SCALAR"
    }
  ],
  "bufferViews": [
    {
      "buffer": 0,
      "byteOffset": 0,
      "byteLength": 180,
      "target": 34962
    },
    {
      "buffer": 0,
      "byteOffset": 180,
      "byteLength": 60,
      "target": 34962
    },
    {
      "buffer": 0,
      "byteOffset": 240,
      "byteLength": 60,
      "target": 34962
    },
    {
      "buffer": 0,
      "byteOffset": 300,
      "byteLength": 80,
      "target": 34963
    }
  ],
  "buffers": [
    {
      "byteLength": 380,
      "uri": "data:application/octet-stream;base64,"
    }
  ]
}
